RobotoSerifMicro-Hairline 05g.ufo
<glyph name="slash" format="2">
  <advance width="565"/>
  <unicode hex="002F"/>
  <outline>
    <contour>
      <point x="575" y="780" type="line"/>
      <point x="40" y="-158" type="line"/>
      <point x="-10" y="-158" type="line"/>
      <point x="525" y="780" type="line"/>
    </contour>
  </outline>
</glyph>
<glyph name="cedilla" format="2">
  <advance width="500"/>
  <unicode hex="00B8"/>
  <anchor x="264" y="34" name="_bottom"/>
  <outline>
    <contour>
      <point x="299" y="5" type="line"/>
      <point x="235" y="5" type="line"/>
      <point x="199" y="-120" type="line"/>
      <point x="232" y="-120" type="line" smooth="yes"/>
      <point x="294.0" y="-120.0"/>
      <point x="332" y="-131"/>
      <point x="332" y="-179" type="curve" smooth="yes"/>
      <point x="332.0" y="-225"/>
      <point x="307" y="-248"/>
      <point x="258" y="-248" type="curve" smooth="yes"/>
      <point x="205.0" y="-248.0"/>
      <point x="179" y="-215"/>
      <point x="161" y="-190" type="curve"/>
      <point x="124" y="-218" type="line"/>
      <point x="148" y="-256"/>
      <point x="189" y="-288"/>
      <point x="258" y="-288" type="curve" smooth="yes"/>
      <point x="323" y="-288"/>
      <point x="390" y="-257"/>
      <point x="390" y="-179" type="curve" smooth="yes"/>
      <point x="390" y="-110"/>
      <point x="343" y="-78"/>
      <point x="231" y="-80" type="curve"/>
      <point x="225" y="-85"/>
      <point x="228" y="-95"/>
      <point x="236" y="-91" type="curve"/>
    </contour>
  </outline>
</glyph>
<glyph name="icircumflex" format="2">
  <advance width="331"/>
  <unicode hex="00EE"/>
  <outline>
    <contour>
      <point x="184" y="833" type="line"/>
      <point x="290" y="677" type="line"/>
      <point x="290" y="656" type="line"/>
      <point x="268" y="656" type="line"/>
      <point x="136" y="789" type="line"/>
      <point x="165" y="789" type="line"/>
      <point x="43" y="656" type="line"/>
      <point x="21" y="656" type="line"/>
      <point x="21" y="677" type="line"/>
      <point x="126" y="833" type="line"/>
    </contour>
    <component base="dotlessi"/>
  </outline>
</glyph>
<glyph name="idieresis" format="2">
  <advance width="331"/>
  <unicode hex="00EF"/>
  <outline>
    <contour>
      <point x="44" y="693" type="curve" smooth="yes"/>
      <point x="75" y="693"/>
      <point x="100" y="708"/>
      <point x="100" y="749" type="curve" smooth="yes"/>
      <point x="100" y="789"/>
      <point x="75" y="805"/>
      <point x="44" y="805" type="curve" smooth="yes"/>
      <point x="11" y="805"/>
      <point x="-12" y="789"/>
      <point x="-12" y="749" type="curve" smooth="yes"/>
      <point x="-12" y="708"/>
      <point x="11" y="693"/>
    </contour>
    <contour>
      <point x="263" y="693" type="curve" smooth="yes"/>
      <point x="294" y="693"/>
      <point x="319" y="708"/>
      <point x="319" y="749" type="curve" smooth="yes"/>
      <point x="319" y="789"/>
      <point x="294" y="805"/>
      <point x="263" y="805" type="curve" smooth="yes"/>
      <point x="230" y="805"/>
      <point x="207" y="789"/>
      <point x="207" y="749" type="curve" smooth="yes"/>
      <point x="207" y="708"/>
      <point x="230" y="693"/>
    </contour>
    <component base="dotlessi"/>
  </outline>
</glyph>
<glyph name="Aogonek" format="2">
  <advance width="705"/>
  <unicode hex="0104"/>
  <outline>
    <contour>
      <point x="609" y="37" type="line"/>
      <point x="454" y="-63"/>
      <point x="416" y="-90"/>
      <point x="416" y="-159" type="curve" smooth="yes"/>
      <point x="416" y="-218"/>
      <point x="461" y="-252"/>
      <point x="527" y="-252" type="curve" smooth="yes"/>
      <point x="587" y="-252"/>
      <point x="629" y="-223"/>
      <point x="663" y="-183" type="curve"/>
      <point x="637" y="-157" type="line"/>
      <point x="618" y="-178"/>
      <point x="587" y="-212"/>
      <point x="534" y="-212" type="curve" smooth="yes"/>
      <point x="494" y="-212"/>
      <point x="473" y="-191"/>
      <point x="473" y="-156" type="curve" smooth="yes"/>
      <point x="473" y="-90"/>
      <point x="532" y="-59"/>
      <point x="630" y="10" type="curve"/>
    </contour>
    <contour>
      <point x="197" y="290" type="line"/>
      <point x="182" y="247" type="line"/>
      <point x="517" y="247" type="line"/>
      <point x="499" y="290" type="line"/>
    </contour>
    <contour>
      <point x="688" y="0" type="line"/>
      <point x="688" y="48" type="line"/>
      <point x="682" y="48" type="line" smooth="yes"/>
      <point x="641" y="48"/>
      <point x="614" y="59"/>
      <point x="596" y="112" type="curve" smooth="yes"/>
      <point x="392" y="722" type="line"/>
      <point x="311" y="722" type="line"/>
      <point x="109" y="112" type="line" smooth="yes"/>
      <point x="91" y="59"/>
      <point x="64" y="48"/>
      <point x="23" y="48" type="curve" smooth="yes"/>
      <point x="17" y="48" type="line"/>
      <point x="17" y="0" type="line"/>
      <point x="243" y="0" type="line"/>
      <point x="243" y="48" type="line"/>
      <point x="233" y="48" type="line" smooth="yes"/>
      <point x="177" y="48"/>
      <point x="143" y="58"/>
      <point x="143" y="71" type="curve"/>
      <point x="355" y="715" type="line"/>
      <point x="344" y="712" type="line"/>
      <point x="580" y="0" type="line"/>
    </contour>
  </outline>
</glyph>
<glyph name="eogonek" format="2">
  <advance width="580"/>
  <unicode hex="0119"/>
  <outline>
    <contour>
      <point x="424" y="32" type="line"/>
      <point x="266" y="-70"/>
      <point x="228" y="-97"/>
      <point x="228" y="-161" type="curve" smooth="yes"/>
      <point x="228.0" y="-218.0"/>
      <point x="274" y="-252"/>
      <point x="340" y="-252" type="curve" smooth="yes"/>
      <point x="400" y="-252"/>
      <point x="442" y="-223"/>
      <point x="476" y="-183" type="curve"/>
      <point x="450" y="-157" type="line"/>
      <point x="431" y="-178"/>
      <point x="400" y="-212"/>
      <point x="347" y="-212" type="curve" smooth="yes"/>
      <point x="307" y="-212"/>
      <point x="286" y="-191"/>
      <point x="286" y="-156" type="curve" smooth="yes"/>
      <point x="286" y="-76"/>
      <point x="403.0" y="-31.0"/>
      <point x="489" y="52" type="curve" smooth="yes"/>
      <point x="504" y="66"/>
      <point x="517" y="84"/>
      <point x="528" y="103" type="curve"/>
      <point x="492" y="126" type="line"/>
      <point x="456" y="72"/>
      <point x="416" y="33"/>
      <point x="313" y="33" type="curve" smooth="yes"/>
      <point x="194" y="33"/>
      <point x="108" y="96"/>
      <point x="108" y="276" type="curve" smooth="yes"/>
      <point x="108" y="445"/>
      <point x="175" y="529"/>
      <point x="300" y="529" type="curve" smooth="yes"/>
      <point x="423" y="529"/>
      <point x="464" y="471"/>
      <point x="469" y="293" type="curve"/>
      <point x="485" y="307" type="line"/>
      <point x="92" y="307" type="line"/>
      <point x="92" y="267" type="line"/>
      <point x="523" y="267" type="line"/>
      <point x="524" y="467"/>
      <point x="459" y="575"/>
      <point x="300" y="575" type="curve" smooth="yes"/>
      <point x="151" y="575"/>
      <point x="52" y="454"/>
      <point x="52" y="276" type="curve" smooth="yes"/>
      <point x="52" y="83"/>
      <point x="169" y="-13"/>
      <point x="313" y="-13" type="curve" smooth="yes"/>
      <point x="350" y="-13"/>
      <point x="383" y="-7"/>
      <point x="412" y="3" type="curve"/>
    </contour>
  </outline>
</glyph>
<glyph name="itilde" format="2">
  <advance width="331"/>
  <unicode hex="0129"/>
  <outline>
    <contour>
      <point x="212" y="666" type="curve" smooth="yes"/>
      <point x="265" y="666"/>
      <point x="293" y="695"/>
      <point x="311" y="828" type="curve"/>
      <point x="268" y="838" type="line"/>
      <point x="254" y="755"/>
      <point x="245" y="718"/>
      <point x="216" y="718" type="curve"/>
      <point x="172" y="718"/>
      <point x="189" y="833"/>
      <point x="98" y="833" type="curve" smooth="yes"/>
      <point x="42" y="833"/>
      <point x="11" y="799"/>
      <point x="-2" y="675" type="curve"/>
      <point x="41" y="665" type="line"/>
      <point x="52" y="747"/>
      <point x="61" y="781"/>
      <point x="90" y="781" type="curve" smooth="yes"/>
      <point x="137.0" y="781.0"/>
      <point x="121" y="666"/>
    </contour>
    <component base="dotlessi"/>
  </outline>
</glyph>
<glyph name="ibreve" format="2">
  <advance width="331"/>
  <unicode hex="012D"/>
  <outline>
    <contour>
      <point x="151" y="673" type="curve" smooth="yes"/>
      <point x="65" y="673"/>
      <point x="16" y="709"/>
      <point x="14" y="826" type="curve"/>
      <point x="60" y="826" type="line"/>
      <point x="68" y="753"/>
      <point x="83" y="726"/>
      <point x="153" y="726" type="curve" smooth="yes"/>
      <point x="220" y="726"/>
      <point x="237" y="754"/>
      <point x="245" y="826" type="curve"/>
      <point x="288" y="826" type="line"/>
      <point x="286" y="709"/>
      <point x="237" y="673"/>
    </contour>
    <component base="dotlessi"/>
  </outline>
</glyph>
<glyph name="Uogonek" format="2">
  <advance width="812"/>
  <unicode hex="0172"/>
  <outline>
    <contour>
      <point x="550" y="37" type="line"/>
      <point x="385" y="-70"/>
      <point x="346" y="-94"/>
      <point x="346" y="-161" type="curve" smooth="yes"/>
      <point x="346.0" y="-217.0"/>
      <point x="392" y="-252"/>
      <point x="458" y="-252" type="curve" smooth="yes"/>
      <point x="518" y="-252"/>
      <point x="560" y="-223"/>
      <point x="594" y="-183" type="curve"/>
      <point x="568" y="-157" type="line"/>
      <point x="549" y="-178"/>
      <point x="518" y="-212"/>
      <point x="465" y="-212" type="curve" smooth="yes"/>
      <point x="425" y="-212"/>
      <point x="404" y="-191"/>
      <point x="404" y="-156" type="curve" smooth="yes"/>
      <point x="404" y="-78"/>
      <point x="509.0" y="-40.0"/>
      <point x="593" y="44" type="curve" smooth="yes"/>
      <point x="637" y="88"/>
      <point x="664" y="158"/>
      <point x="664" y="256" type="curve" smooth="yes"/>
      <point x="664" y="617" type="line" smooth="yes"/>
      <point x="664" y="651"/>
      <point x="700" y="662"/>
      <point x="749" y="662" type="curve" smooth="yes"/>
      <point x="760" y="662" type="line"/>
      <point x="760" y="710" type="line"/>
      <point x="526" y="710" type="line"/>
      <point x="526" y="662" type="line"/>
      <point x="535" y="662" type="line" smooth="yes"/>
      <point x="573" y="662"/>
      <point x="622" y="655"/>
      <point x="622" y="643" type="curve" smooth="yes"/>
      <point x="622" y="256" type="line" smooth="yes"/>
      <point x="622" y="83"/>
      <point x="533" y="23"/>
      <point x="412" y="23" type="curve" smooth="yes"/>
      <point x="292" y="23"/>
      <point x="199" y="81"/>
      <point x="199" y="256" type="curve" smooth="yes"/>
      <point x="199" y="652" type="line" smooth="yes"/>
      <point x="199" y="659"/>
      <point x="248" y="662"/>
      <point x="286" y="662" type="curve" smooth="yes"/>
      <point x="295" y="662" type="line"/>
      <point x="295" y="710" type="line"/>
      <point x="52" y="710" type="line"/>
      <point x="52" y="662" type="line"/>
      <point x="63" y="662" type="line" smooth="yes"/>
      <point x="112" y="662"/>
      <point x="148" y="655"/>
      <point x="148" y="626" type="curve" smooth="yes"/>
      <point x="148" y="256" type="line" smooth="yes"/>
      <point x="148" y="54"/>
      <point x="257" y="-25"/>
      <point x="406" y="-25" type="curve" smooth="yes"/>
      <point x="449" y="-25"/>
      <point x="490" y="-18"/>
      <point x="525" y="-2" type="curve"/>
    </contour>
  </outline>
</glyph>
<glyph name="icaron" format="2">
  <advance width="331"/>
  <unicode hex="01D0"/>
  <outline>
    <contour>
      <point x="136" y="667" type="line"/>
      <point x="20" y="823" type="line"/>
      <point x="20" y="844" type="line"/>
      <point x="42" y="844" type="line"/>
      <point x="184" y="711" type="line"/>
      <point x="155" y="711" type="line"/>
      <point x="287" y="844" type="line"/>
      <point x="309" y="844" type="line"/>
      <point x="309" y="823" type="line"/>
      <point x="194" y="667" type="line"/>
    </contour>
    <component base="dotlessi"/>
  </outline>
</glyph>
<glyph name="Oogonek" format="2">
  <advance width="782"/>
  <unicode hex="01EA"/>
  <outline>
    <contour>
      <point x="391" y="21" type="curve" smooth="yes"/>
      <point x="213" y="21"/>
      <point x="112" y="123"/>
      <point x="112" y="355" type="curve" smooth="yes"/>
      <point x="112" y="587"/>
      <point x="213" y="689"/>
      <point x="391" y="689" type="curve" smooth="yes"/>
      <point x="569" y="689"/>
      <point x="670" y="587"/>
      <point x="670" y="355" type="curve" smooth="yes"/>
      <point x="670" y="123"/>
      <point x="569" y="21"/>
    </contour>
    <contour>
      <point x="555" y="32" type="line"/>
      <point x="378" y="-70"/>
      <point x="340" y="-94"/>
      <point x="340" y="-161" type="curve" smooth="yes"/>
      <point x="340" y="-218"/>
      <point x="386" y="-252"/>
      <point x="452" y="-252" type="curve" smooth="yes"/>
      <point x="512" y="-252"/>
      <point x="554" y="-223"/>
      <point x="588" y="-183" type="curve"/>
      <point x="562" y="-157" type="line"/>
      <point x="543" y="-178"/>
      <point x="512" y="-212"/>
      <point x="459" y="-212" type="curve" smooth="yes"/>
      <point x="418" y="-212"/>
      <point x="398" y="-190"/>
      <point x="398" y="-161" type="curve" smooth="yes"/>
      <point x="398.0" y="-71.0"/>
      <point x="519.0" y="-45.0"/>
      <point x="626" y="62" type="curve" smooth="yes"/>
      <point x="687" y="123"/>
      <point x="726" y="222"/>
      <point x="726" y="355" type="curve" smooth="yes"/>
      <point x="726" y="610"/>
      <point x="590" y="735"/>
      <point x="391" y="735" type="curve" smooth="yes"/>
      <point x="192" y="735"/>
      <point x="56" y="610"/>
      <point x="56" y="355" type="curve" smooth="yes"/>
      <point x="56" y="100"/>
      <point x="192" y="-25"/>
      <point x="391" y="-25" type="curve" smooth="yes"/>
      <point x="429" y="-25"/>
      <point x="465" y="-20"/>
      <point x="499" y="-11" type="curve"/>
    </contour>
  </outline>
</glyph>
<glyph name="iinvertedbreve" format="2">
  <advance width="331"/>
  <unicode hex="020B"/>
  <outline>
    <contour>
      <point x="150" y="825" type="curve" smooth="yes"/>
      <point x="236" y="825"/>
      <point x="285" y="789"/>
      <point x="287" y="672" type="curve"/>
      <point x="241" y="672" type="line"/>
      <point x="233" y="745"/>
      <point x="218" y="772"/>
      <point x="148" y="772" type="curve" smooth="yes"/>
      <point x="81" y="772"/>
      <point x="64" y="744"/>
      <point x="56" y="672" type="curve"/>
      <point x="13" y="672" type="line"/>
      <point x="15" y="789"/>
      <point x="64" y="825"/>
    </contour>
    <component base="dotlessi"/>
  </outline>
</glyph>
<glyph name="tilde" format="2">
  <advance width="500"/>
  <unicode hex="02DC"/>
  <anchor x="250" y="516" name="_top"/>
  <outline>
    <contour>
      <point x="318" y="666" type="curve" smooth="yes"/>
      <point x="371" y="666"/>
      <point x="399" y="695"/>
      <point x="417" y="828" type="curve"/>
      <point x="374" y="838" type="line"/>
      <point x="360" y="755"/>
      <point x="350" y="718"/>
      <point x="320" y="718" type="curve" smooth="yes"/>
      <point x="272.0" y="718.0"/>
      <point x="270" y="833"/>
      <point x="184" y="833" type="curve" smooth="yes"/>
      <point x="128" y="833"/>
      <point x="97" y="799"/>
      <point x="84" y="675" type="curve"/>
      <point x="127" y="665" type="line"/>
      <point x="138" y="747"/>
      <point x="148" y="781"/>
      <point x="178" y="781" type="curve" smooth="yes"/>
      <point x="229.0" y="781.0"/>
      <point x="232" y="666"/>
    </contour>
  </outline>
</glyph>
<glyph name="Delta" format="2">
  <advance width="727"/>
  <unicode hex="0394"/>
  <guideline x="0" y="51" angle="0" identifier="u3AVeYIBMi"/>
  <outline>
    <contour>
      <point x="45" y="0" type="line"/>
      <point x="682" y="0" type="line"/>
      <point x="682" y="51" type="line"/>
      <point x="400" y="710" type="line"/>
      <point x="327" y="710" type="line"/>
      <point x="45" y="51" type="line"/>
    </contour>
    <contour>
      <point x="637" y="22" type="line"/>
      <point x="651" y="47" type="line"/>
      <point x="56" y="47" type="line"/>
      <point x="76" y="11" type="line"/>
      <point x="363" y="690" type="line"/>
      <point x="350" y="701" type="line"/>
    </contour>
  </outline>
</glyph>
<glyph name="idieresisacute" format="2">
  <advance width="331"/>
  <unicode hex="1E2F"/>
  <outline>
    <contour>
      <point x="44" y="693" type="curve" smooth="yes"/>
      <point x="75" y="693"/>
      <point x="100" y="708"/>
      <point x="100" y="749" type="curve" smooth="yes"/>
      <point x="100" y="789"/>
      <point x="75" y="805"/>
      <point x="44" y="805" type="curve" smooth="yes"/>
      <point x="11" y="805"/>
      <point x="-12" y="789"/>
      <point x="-12" y="749" type="curve" smooth="yes"/>
      <point x="-12" y="708"/>
      <point x="11" y="693"/>
    </contour>
    <contour>
      <point x="263" y="693" type="curve" smooth="yes"/>
      <point x="294" y="693"/>
      <point x="319" y="708"/>
      <point x="319" y="749" type="curve" smooth="yes"/>
      <point x="319" y="789"/>
      <point x="294" y="805"/>
      <point x="263" y="805" type="curve" smooth="yes"/>
      <point x="230" y="805"/>
      <point x="207" y="789"/>
      <point x="207" y="749" type="curve" smooth="yes"/>
      <point x="207" y="708"/>
      <point x="230" y="693"/>
    </contour>
    <contour>
      <point x="214" y="999" type="curve" smooth="yes"/>
      <point x="144" y="883" type="line"/>
      <point x="144" y="863" type="line"/>
      <point x="166" y="863" type="line"/>
      <point x="276" y="960" type="line" smooth="yes"/>
      <point x="302" y="983"/>
      <point x="321" y="1000"/>
      <point x="321" y="1026" type="curve" smooth="yes"/>
      <point x="321" y="1044"/>
      <point x="306" y="1061"/>
      <point x="280" y="1061" type="curve" smooth="yes"/>
      <point x="249" y="1061"/>
      <point x="235" y="1034"/>
    </contour>
    <component base="dotlessi"/>
  </outline>
</glyph>
<glyph name="Germandbls" format="2">
  <advance width="812"/>
  <unicode hex="1E9E"/>
  <guideline x="325" y="720" angle="0" identifier="FatnrSvv4R"/>
  <outline>
    <contour>
      <point x="368" y="190" type="curve"/>
      <point x="380" y="51"/>
      <point x="443" y="-14"/>
      <point x="564" y="-14" type="curve" smooth="yes"/>
      <point x="687" y="-14"/>
      <point x="755" y="58"/>
      <point x="755" y="188" type="curve" smooth="yes"/>
      <point x="755" y="335"/>
      <point x="651" y="366"/>
      <point x="479" y="413" type="curve"/>
      <point x="462" y="414"/>
      <point x="462" y="398"/>
      <point x="484" y="389" type="curve"/>
      <point x="682" y="661" type="line"/>
      <point x="682" y="710" type="line"/>
      <point x="381" y="710" type="line" smooth="yes"/>
      <point x="201" y="710"/>
      <point x="140" y="628"/>
      <point x="140" y="473" type="curve" smooth="yes"/>
      <point x="140" y="84" type="line" smooth="yes"/>
      <point x="140" y="55"/>
      <point x="104" y="48"/>
      <point x="55" y="48" type="curve" smooth="yes"/>
      <point x="44" y="48" type="line"/>
      <point x="44" y="0" type="line"/>
      <point x="191" y="0" type="line"/>
      <point x="191" y="480" type="line" smooth="yes"/>
      <point x="191" y="595"/>
      <point x="222" y="666"/>
      <point x="381" y="666" type="curve" smooth="yes"/>
      <point x="670" y="666" type="line"/>
      <point x="678" y="672"/>
      <point x="664" y="694"/>
      <point x="647" y="691" type="curve"/>
      <point x="450" y="420" type="line"/>
      <point x="450" y="380" type="line"/>
      <point x="619" y="335"/>
      <point x="704" y="317"/>
      <point x="704" y="188" type="curve" smooth="yes"/>
      <point x="704" y="82"/>
      <point x="659" y="29"/>
      <point x="564" y="29" type="curve" smooth="yes"/>
      <point x="447" y="29"/>
      <point x="400" y="113"/>
      <point x="377" y="234" type="curve"/>
      <point x="327" y="234" type="line"/>
      <point x="327" y="0" type="line"/>
      <point x="369" y="0" type="line"/>
      <point x="377" y="181" type="line"/>
      <point x="381" y="196"/>
      <point x="380" y="203"/>
    </contour>
  </outline>
</glyph>
<glyph name="numero" format="2">
  <advance width="1328"/>
  <unicode hex="2116"/>
  <guideline x="760" y="486" angle="90.0" identifier="Zzw3Kwkuip"/>
  <guideline x="1183" y="468" angle="90.0" identifier="RPJ3u0mvJi"/>
  <guideline x="884" y="490" angle="90" identifier="k5mDukvYgy"/>
  <guideline x="1274" y="501" angle="90" identifier="x7VUJUJwXh"/>
  <outline>
    <contour>
      <point x="894" y="147" type="line"/>
      <point x="1264" y="147" type="line"/>
      <point x="1264" y="192" type="line"/>
      <point x="894" y="192" type="line"/>
    </contour>
    <component base="N"/>
    <component base="ordmasculine" xOffset="814"/>
  </outline>
</glyph>
<glyph name="backslash.uc" format="2">
  <advance width="548"/>
  <guideline x="496" y="760" angle="0" identifier="UPAfWP31l4"/>
  <guideline x="296" y="-60" angle="0" identifier="9tMawnhkHR"/>
  <outline>
    <contour>
      <point x="0" y="760" type="line"/>
      <point x="462" y="-60" type="line"/>
      <point x="518" y="-60" type="line"/>
      <point x="56" y="760" type="line"/>
    </contour>
  </outline>
</glyph>
<glyph name="circumflex_hook" format="2">
  <advance width="540"/>
  <anchor x="251" y="559.0" name="_top"/>
  <outline>
    <contour>
      <point x="300.0" y="937" type="line"/>
      <point x="307" y="1003"/>
      <point x="357" y="1044"/>
      <point x="439" y="1044" type="curve" smooth="yes"/>
      <point x="527" y="1044"/>
      <point x="572" y="1009"/>
      <point x="572" y="948" type="curve" smooth="yes"/>
      <point x="572" y="877"/>
      <point x="516" y="847"/>
      <point x="440" y="844" type="curve"/>
      <point x="460" y="872" type="line"/>
      <point x="460" y="787" type="line"/>
      <point x="414" y="787" type="line"/>
      <point x="414" y="879" type="line"/>
      <point x="479" y="880"/>
      <point x="517" y="889"/>
      <point x="517" y="947" type="curve" smooth="yes"/>
      <point x="517.0" y="987.0"/>
      <point x="493" y="1003"/>
      <point x="439" y="1003" type="curve" smooth="yes"/>
      <point x="386.0" y="1003.0"/>
      <point x="365" y="985"/>
      <point x="357" y="937" type="curve"/>
    </contour>
    <component base="circumflex"/>
  </outline>
</glyph>
<glyph name="commaaccent" format="2">
  <advance width="296"/>
  <anchor x="155" y="-27" name="_bottom"/>
  <outline>
    <contour>
      <point x="96" y="-337" type="line"/>
      <point x="185" y="-309"/>
      <point x="227" y="-265"/>
      <point x="227" y="-169" type="curve" smooth="yes"/>
      <point x="227.0" y="-124.0"/>
      <point x="207" y="-96"/>
      <point x="155" y="-96" type="curve" smooth="yes"/>
      <point x="113" y="-96"/>
      <point x="93" y="-117"/>
      <point x="93" y="-145" type="curve" smooth="yes"/>
      <point x="93" y="-175"/>
      <point x="114" y="-191"/>
      <point x="146" y="-191" type="curve" smooth="yes"/>
      <point x="164" y="-191"/>
      <point x="183" y="-188"/>
      <point x="196" y="-175" type="curve"/>
      <point x="186" y="-157"/>
      <point x="186" y="-159"/>
      <point x="186" y="-177" type="curve"/>
      <point x="186" y="-242"/>
      <point x="158" y="-270"/>
      <point x="71" y="-293" type="curve"/>
    </contour>
  </outline>
</glyph>
<glyph name="slash.uc" format="2">
  <advance width="548"/>
  <guideline x="496" y="760" angle="0" identifier="UPAfWP31l4"/>
  <guideline x="296" y="-60" angle="0" identifier="9tMawnhkHR"/>
  <outline>
    <contour>
      <point x="548" y="760" type="line"/>
      <point x="84" y="-60" type="line"/>
      <point x="30" y="-60" type="line"/>
      <point x="494" y="760" type="line"/>
    </contour>
  </outline>
</glyph>
<glyph name="tilde.uc" format="2">
  <advance width="500"/>
  <anchor x="250" y="694" name="_top"/>
  <outline>
    <contour>
      <point x="325" y="789" type="curve" smooth="yes"/>
      <point x="385" y="789"/>
      <point x="416" y="822"/>
      <point x="432" y="957" type="curve"/>
      <point x="387" y="967" type="line"/>
      <point x="374" y="884"/>
      <point x="364" y="841"/>
      <point x="329" y="841" type="curve" smooth="yes"/>
      <point x="278" y="841"/>
      <point x="267" y="962"/>
      <point x="181" y="962" type="curve" smooth="yes"/>
      <point x="120" y="962"/>
      <point x="86" y="923"/>
      <point x="69" y="799" type="curve"/>
      <point x="114" y="789" type="line"/>
      <point x="128" y="872"/>
      <point x="140" y="910"/>
      <point x="173" y="910" type="curve" smooth="yes"/>
      <point x="225" y="910"/>
      <point x="237" y="789"/>
    </contour>
  </outline>
</glyph>
<glyph name="two.oldprop" format="2">
  <advance width="573"/>
  <outline>
    <contour>
      <point x="342" y="42" type="line" smooth="yes"/>
      <point x="424" y="42"/>
      <point x="457" y="49"/>
      <point x="460" y="83" type="curve" smooth="yes"/>
      <point x="469" y="188" type="line"/>
      <point x="515" y="188" type="line"/>
      <point x="515" y="0" type="line"/>
      <point x="48" y="0" type="line"/>
      <point x="48" y="54" type="line"/>
      <point x="294" y="242"/>
      <point x="439" y="318"/>
      <point x="439" y="471" type="curve" smooth="yes"/>
      <point x="439.0" y="575.0"/>
      <point x="380" y="601"/>
      <point x="286" y="601" type="curve" smooth="yes"/>
      <point x="200" y="601"/>
      <point x="147" y="574"/>
      <point x="113" y="547" type="curve"/>
      <point x="116" y="563"/>
      <point x="148" y="601"/>
      <point x="148" y="590" type="curve" smooth="yes"/>
      <point x="148" y="427" type="line"/>
      <point x="85" y="427" type="line"/>
      <point x="85" y="583" type="line"/>
      <point x="118" y="606"/>
      <point x="187" y="649"/>
      <point x="285" y="649" type="curve" smooth="yes"/>
      <point x="422" y="649"/>
      <point x="495" y="595"/>
      <point x="495" y="471" type="curve" smooth="yes"/>
      <point x="495.0" y="305.0"/>
      <point x="293" y="190"/>
      <point x="80" y="32" type="curve"/>
      <point x="65" y="16"/>
      <point x="62" y="36"/>
      <point x="76" y="42" type="curve"/>
    </contour>
  </outline>
</glyph>
